<?xml version="1.0" standalone="no"?>
<!DOCTYPE svg PUBLIC "-//W3C//DTD SVG 1.0//EN" "http://www.w3.org/TR/2001/REC-SVG-20010904/DTD/svg10.dtd">
<svg xmlns="http://www.w3.org/2000/svg" xmlns:xlink="http://www.w3.org/1999/xlink" id="body_1" width="31" height="23">

<g transform="matrix(0.044921875 0 0 0.044921875 4.000001 -0)">
    <path d="M391 480C 371.48 480 344.06 472.94 303 450C 253.07 422 214.45 396.15 164.79 346.62C 116.91 298.77 93.61 267.79 61 208.45C 24.16 141.45 30.44 106.329994 37.46 91.32C 45.82 73.38 58.16 62.65 74.11 52C 75.11 51.57 76.04 51.16 76.87 50.79C 81.82 48.56 89.32 45.190002 98.82001 48.79C 105.16 51.170002 110.82001 56.04 119.68001 64.79C 137.85 82.71 162.68001 122.62 171.84001 142.22C 177.99 155.43001 182.06001 164.15 182.07 173.93C 182.07 185.37999 176.31001 194.20999 169.32 203.73999C 168.01001 205.52998 166.71 207.23999 165.45001 208.9C 157.84001 218.9 156.17001 221.79 157.27002 226.95C 159.50002 237.31999 176.13002 268.19 203.46002 295.46C 230.79002 322.72998 260.77002 338.31 271.18002 340.53C 276.56003 341.68 279.51 339.94 289.83002 332.06C 291.31003 330.93 292.83002 329.76 294.42 328.59C 305.08002 320.66 313.5 315.05 324.68002 315.05L324.68002 315.05L324.74002 315.05C 334.47003 315.05 342.80002 319.27 356.60004 326.22998C 374.60004 335.30997 415.71002 359.81998 433.74005 378.00998C 442.51004 386.84998 447.40005 392.49 449.79004 398.81998C 453.39005 408.34998 450.00003 415.81998 447.79004 420.81998C 447.42004 421.64996 447.01004 422.55997 446.58005 423.56998C 435.95004 439.46997 425.18005 451.77997 407.20004 460.14996L407.20004 460.14996L391 480z" stroke="none" fill="#000000" fill-rule="nonzero" />
</g>
</svg>
